<mxfile host="Electron" modified="2025-04-27T13:37:17.663Z" agent="Mozilla/5.0 (Macintosh; Intel Mac OS X 10_15_7) AppleWebKit/537.36 (KHTML, like Gecko) draw.io/24.5.1 Chrome/124.0.6367.207 Electron/30.0.6 Safari/537.36" version="24.5.1" etag="b1EtF1X4G1N8vEBOzzyI" type="device">
  <diagram id="BU_lae6PiSF0EtFjJROm" name="Page-1">
    <mxGraphModel dx="2203" dy="1085" grid="1" gridSize="10" guides="0" tooltips="1" connect="1" arrows="1" fold="1" page="0" pageScale="1" pageWidth="850" pageHeight="1100" math="0" shadow="0">
      <root>
        <mxCell id="0" />
        <mxCell id="1" parent="0" />
        <mxCell id="9m-zToLKRwISalrchRIr-46" value="" style="whiteSpace=wrap;html=1;fillColor=default;" vertex="1" parent="1">
          <mxGeometry x="-280" y="-140" width="1180" height="770" as="geometry" />
        </mxCell>
        <mxCell id="9m-zToLKRwISalrchRIr-44" style="edgeStyle=orthogonalEdgeStyle;rounded=0;orthogonalLoop=1;jettySize=auto;html=1;entryX=0;entryY=0.5;entryDx=0;entryDy=0;" edge="1" parent="1" source="29" target="30">
          <mxGeometry relative="1" as="geometry">
            <mxPoint x="640" y="410" as="targetPoint" />
          </mxGeometry>
        </mxCell>
        <mxCell id="29" value="" style="whiteSpace=wrap;html=1;fillColor=#ffe6cc;strokeColor=#d79b00;" parent="1" vertex="1">
          <mxGeometry x="320" y="250" width="210" height="320" as="geometry" />
        </mxCell>
        <mxCell id="30" value="" style="whiteSpace=wrap;html=1;fillColor=#f8cecc;strokeColor=#b85450;" parent="1" vertex="1">
          <mxGeometry x="610" y="250" width="210" height="320" as="geometry" />
        </mxCell>
        <mxCell id="3" value="" style="whiteSpace=wrap;html=1;fillColor=#dae8fc;strokeColor=#6c8ebf;" parent="1" vertex="1">
          <mxGeometry x="-200" y="-50" width="440" height="620" as="geometry" />
        </mxCell>
        <mxCell id="26" value="" style="whiteSpace=wrap;html=1;fillColor=#fff2cc;strokeColor=#d6b656;" parent="1" vertex="1">
          <mxGeometry x="-140" y="350" width="320" height="190" as="geometry" />
        </mxCell>
        <mxCell id="9m-zToLKRwISalrchRIr-41" style="edgeStyle=orthogonalEdgeStyle;rounded=0;orthogonalLoop=1;jettySize=auto;html=1;entryX=0.5;entryY=0;entryDx=0;entryDy=0;" edge="1" parent="1" source="2" target="26">
          <mxGeometry relative="1" as="geometry" />
        </mxCell>
        <mxCell id="2" value="" style="whiteSpace=wrap;html=1;fillColor=#d5e8d4;strokeColor=#82b366;" parent="1" vertex="1">
          <mxGeometry x="-140" y="10" width="320" height="280" as="geometry" />
        </mxCell>
        <mxCell id="4" value="Raspberry Pi 4B (ARM64) - K3S Node (SBC) " style="text;html=1;align=left;verticalAlign=middle;resizable=0;points=[];autosize=1;strokeColor=none;fillColor=none;" parent="1" vertex="1">
          <mxGeometry x="-140" y="-30" width="320" height="30" as="geometry" />
        </mxCell>
        <mxCell id="5" value="GPIO (optional)" style="whiteSpace=wrap;html=1;fillColor=#fff2cc;strokeColor=#d6b656;" parent="1" vertex="1">
          <mxGeometry x="-120" y="452.5" width="280" height="60" as="geometry" />
        </mxCell>
        <mxCell id="6" value="USB" style="whiteSpace=wrap;html=1;fillColor=#fff2cc;strokeColor=#d6b656;" parent="1" vertex="1">
          <mxGeometry x="-120" y="380" width="280" height="60" as="geometry" />
        </mxCell>
        <mxCell id="8" value="ESP32 (USB)" style="whiteSpace=wrap;html=1;fillColor=#ffe6cc;strokeColor=#d79b00;" parent="1" vertex="1">
          <mxGeometry x="340" y="330" width="165" height="60" as="geometry" />
        </mxCell>
        <mxCell id="9" value="ESP8266 (USB)" style="whiteSpace=wrap;html=1;fillColor=#ffe6cc;strokeColor=#d79b00;" parent="1" vertex="1">
          <mxGeometry x="340" y="410" width="165" height="60" as="geometry" />
        </mxCell>
        <mxCell id="10" value="ARDUINO (USB)" style="whiteSpace=wrap;html=1;fillColor=#ffe6cc;strokeColor=#d79b00;" parent="1" vertex="1">
          <mxGeometry x="340" y="490" width="165" height="60" as="geometry" />
        </mxCell>
        <mxCell id="13" value="PROTOBOARD" style="whiteSpace=wrap;html=1;fillColor=#f8cecc;strokeColor=#b85450;" parent="1" vertex="1">
          <mxGeometry x="632.5" y="330" width="165" height="60" as="geometry" />
        </mxCell>
        <mxCell id="14" value="SENSORS" style="whiteSpace=wrap;html=1;fillColor=#f8cecc;strokeColor=#b85450;" parent="1" vertex="1">
          <mxGeometry x="632.5" y="410" width="165" height="60" as="geometry" />
        </mxCell>
        <mxCell id="15" value="DEVICES" style="whiteSpace=wrap;html=1;fillColor=#f8cecc;strokeColor=#b85450;" parent="1" vertex="1">
          <mxGeometry x="632.5" y="490" width="165" height="60" as="geometry" />
        </mxCell>
        <mxCell id="21" value="K3S CLUSTER" style="text;html=1;align=left;verticalAlign=middle;resizable=0;points=[];autosize=1;strokeColor=none;fillColor=none;" parent="1" vertex="1">
          <mxGeometry x="-120" y="20" width="110" height="30" as="geometry" />
        </mxCell>
        <mxCell id="22" value="Hardware Code Deployment" style="whiteSpace=wrap;html=1;fillColor=#d5e8d4;strokeColor=#82b366;" parent="1" vertex="1">
          <mxGeometry x="-120" y="50" width="270" height="60" as="geometry" />
        </mxCell>
        <mxCell id="23" value="K8S Deployment (root permissions)" style="whiteSpace=wrap;html=1;fillColor=#d5e8d4;strokeColor=#82b366;" parent="1" vertex="1">
          <mxGeometry x="-120" y="200" width="270" height="60" as="geometry" />
        </mxCell>
        <mxCell id="24" value="Hardware API&lt;div&gt;Deployment&lt;/div&gt;" style="whiteSpace=wrap;html=1;fillColor=#d5e8d4;strokeColor=#82b366;" parent="1" vertex="1">
          <mxGeometry x="-120" y="124" width="270" height="60" as="geometry" />
        </mxCell>
        <mxCell id="27" value="Host Machine Layer (SBC)" style="text;html=1;align=left;verticalAlign=middle;resizable=0;points=[];autosize=1;strokeColor=none;fillColor=none;" parent="1" vertex="1">
          <mxGeometry x="-120" y="350" width="200" height="30" as="geometry" />
        </mxCell>
        <mxCell id="9m-zToLKRwISalrchRIr-36" value="Â Microcontroller Layer" style="text;html=1;align=center;verticalAlign=middle;resizable=0;points=[];autosize=1;strokeColor=none;fillColor=none;" vertex="1" parent="1">
          <mxGeometry x="345" y="280" width="160" height="30" as="geometry" />
        </mxCell>
        <mxCell id="9m-zToLKRwISalrchRIr-37" value="Hardware Devices" style="text;html=1;align=center;verticalAlign=middle;resizable=0;points=[];autosize=1;strokeColor=none;fillColor=none;" vertex="1" parent="1">
          <mxGeometry x="645" y="280" width="140" height="30" as="geometry" />
        </mxCell>
        <mxCell id="9m-zToLKRwISalrchRIr-42" style="edgeStyle=orthogonalEdgeStyle;rounded=0;orthogonalLoop=1;jettySize=auto;html=1;entryX=1;entryY=0.5;entryDx=0;entryDy=0;" edge="1" parent="1" source="29" target="6">
          <mxGeometry relative="1" as="geometry" />
        </mxCell>
        <mxCell id="9m-zToLKRwISalrchRIr-47" value="HARDWARE CLUSTER" style="text;html=1;align=center;verticalAlign=middle;resizable=0;points=[];autosize=1;strokeColor=none;fillColor=none;" vertex="1" parent="1">
          <mxGeometry x="-200" y="-100" width="150" height="30" as="geometry" />
        </mxCell>
      </root>
    </mxGraphModel>
  </diagram>
</mxfile>
